<svg xmlns="http://www.w3.org/2000/svg" viewBox="0 0 137.95 57.57"><defs><style>.cls-1{fill:#68c3ca;}</style></defs><g id="Camada_2" data-name="Camada 2"><g id="Camada_1-2" data-name="Camada 1"><path class="cls-1" d="M33.51,14.8l.46-.22a24.12,24.12,0,0,1,3.56-1.5c.51-.14.82,0,.93.4a.54.54,0,0,1-.16.6,2,2,0,0,1-.67.31,20.43,20.43,0,0,0-4.53,2,31.29,31.29,0,0,0-.91,4.05,22.28,22.28,0,0,0-.35,3.1l.49-.34c1.08-.72,1.88-1.21,2.41-1.49a12.43,12.43,0,0,1,2-.78,2.27,2.27,0,0,1,1-.1.52.52,0,0,1,.41.43.49.49,0,0,1-.2.58,3.68,3.68,0,0,1-.73.26A13.35,13.35,0,0,0,32,25.21a1.22,1.22,0,0,1-.51.33.76.76,0,0,1-.69-.19,1,1,0,0,1-.39-.53,12.9,12.9,0,0,1,.16-2.41A52.12,52.12,0,0,1,32,15.22c.2-.8.63-2.18,1.28-4.13q.23-.67.42-1.32A.62.62,0,0,1,33,9.26a.63.63,0,0,1,.24-.67,10.7,10.7,0,0,1,2.25-1.21,32.36,32.36,0,0,1,4.39-1.63Q41,5.47,41.11,6a.8.8,0,0,1-.19.75,1,1,0,0,1-.54.29l-.28.06-.39.11a23.92,23.92,0,0,0-2.45.85A14.4,14.4,0,0,0,34.94,9.2a.6.6,0,0,1,.2.26,2.78,2.78,0,0,1-.31,1.08l-.34,1.05A33.32,33.32,0,0,0,33.51,14.8Z"/><path class="cls-1" d="M43.33,18.16a13.32,13.32,0,0,1-.75,2.22c-.59,1.24-1.16,1.94-1.73,2.09a.88.88,0,0,1-1-.35,1.69,1.69,0,0,1-.4-.73,6.55,6.55,0,0,1,.06-2.48c.18-1,.33-1.76.48-2.34a6.49,6.49,0,0,0,.18-.81,4.9,4.9,0,0,1,.12-.57.52.52,0,0,1,.36-.37.39.39,0,0,1,.29.06.55.55,0,0,1,.21.3,7.9,7.9,0,0,1-.32,2.68,7.34,7.34,0,0,0-.31,2.71c.07.26.2.36.4.31.35-.09.71-.68,1.11-1.74a13.14,13.14,0,0,0,.46-1.77l-.14-.45a3.48,3.48,0,0,1-.08-1.65,1.33,1.33,0,0,1,.93-1.17c.28-.08.47.05.56.39a5.79,5.79,0,0,1-.2,2.59,2.87,2.87,0,0,0,.4,0,2,2,0,0,0,.89-.79c.27-.36.45-.56.55-.58a.38.38,0,0,1,.32.08A.39.39,0,0,1,46,16a1.48,1.48,0,0,1-.34,1.14,2.4,2.4,0,0,1-1.42,1A2,2,0,0,1,43.33,18.16Z"/><path class="cls-1" d="M49.6,17.86a10.77,10.77,0,0,1-.46,1.39,2.18,2.18,0,0,1-1.25,1.35,1.17,1.17,0,0,1-1.18-.35,1.93,1.93,0,0,1-.48-.87,6.68,6.68,0,0,1,0-3.17,8.13,8.13,0,0,1,1.52-3.37,2.91,2.91,0,0,1,1.5-1.07,1.28,1.28,0,0,1,.93.08.94.94,0,0,1,.46.55,2.32,2.32,0,0,1,0,.79.91.91,0,0,1,.3.39,2.16,2.16,0,0,1-.11.92,9.54,9.54,0,0,0-.28,1.76A5.53,5.53,0,0,0,50.66,18a1.19,1.19,0,0,0,.52.74,2.53,2.53,0,0,0,.57.15.53.53,0,0,1,.44.42.52.52,0,0,1-.07.42.7.7,0,0,1-.38.27,1.47,1.47,0,0,1-1.27-.28,1.87,1.87,0,0,1-.71-1.07C49.72,18.51,49.67,18.24,49.6,17.86ZM50,13.5a1.1,1.1,0,0,0-.42-.3.53.53,0,0,0-.39,0c-.61.16-1.13.87-1.55,2.13a5.94,5.94,0,0,0-.37,3.31.74.74,0,0,0,.24.43.41.41,0,0,0,.38.06c.39-.1.72-.63,1-1.59a22.82,22.82,0,0,0,.53-2.27A10.66,10.66,0,0,1,49.78,14,1.49,1.49,0,0,1,50,13.5Z"/><path class="cls-1" d="M53.86,14.56c-.07.69-.11,1.24-.13,1.66a3.7,3.7,0,0,0,0,.85.26.26,0,0,0,.37.22c.29-.08.59-.45.9-1.12a16.41,16.41,0,0,0,.57-1.69c.09-.31.23-.5.42-.55a.28.28,0,0,1,.39.22,5.23,5.23,0,0,1-.62,2.41c-.53,1.32-1.15,2.08-1.85,2.27a.92.92,0,0,1-.85-.19,1.08,1.08,0,0,1-.39-.61,6.46,6.46,0,0,1-.09-2,30.86,30.86,0,0,1,.43-3.22,41.91,41.91,0,0,1,2.28-8.29c.74-1.82,1.49-2.83,2.24-3a.71.71,0,0,1,.66.12,1,1,0,0,1,.42.57q.45,1.68-1.49,6.41A31.65,31.65,0,0,1,54.88,13Zm.34-2.14a23,23,0,0,0,3-6.62,6.47,6.47,0,0,0,.41-2.53.23.23,0,0,0-.3-.2c-.44.12-1,1.21-1.69,3.28A39,39,0,0,0,54.2,12.42Z"/><path class="cls-1" d="M61.11,14.9a11.22,11.22,0,0,1-.6,1.4,2,2,0,0,1-1.17,1.15,1.08,1.08,0,0,1-1.06-.28,1.83,1.83,0,0,1-.47-.83,7,7,0,0,1,.36-3.92A6.5,6.5,0,0,1,59,10.67a1.38,1.38,0,0,1,.66-.61.48.48,0,0,1,.36.06.45.45,0,0,1,.19.23,1.58,1.58,0,0,1-.25.87A12.56,12.56,0,0,0,59,13.81a4.56,4.56,0,0,0-.11,2,.36.36,0,0,0,.15.24.27.27,0,0,0,.25,0q.62-.16,1.23-2.22A12.29,12.29,0,0,0,61,11.57a4.34,4.34,0,0,1,.27-1.22,1,1,0,0,1,.55-.6.46.46,0,0,1,.37.07.57.57,0,0,1,.26.33,6.52,6.52,0,0,1-.31,2.17,4,4,0,0,0-.09,1.9,2.11,2.11,0,0,0,.74,1.16,2.66,2.66,0,0,0,.78.28.55.55,0,0,1,.4.43.52.52,0,0,1-.08.43.71.71,0,0,1-.41.28,1.62,1.62,0,0,1-1.22-.19,2.17,2.17,0,0,1-.91-1.1C61.31,15.45,61.23,15.24,61.11,14.9Z"/><path class="cls-1" d="M67.65,13a9.42,9.42,0,0,1-.46,1.39,2.16,2.16,0,0,1-1.25,1.35,1.19,1.19,0,0,1-1.18-.34,2,2,0,0,1-.48-.88,6.69,6.69,0,0,1,0-3.17A8,8,0,0,1,65.84,8a3,3,0,0,1,1.5-1.07,1.28,1.28,0,0,1,.93.08.94.94,0,0,1,.46.55,2.32,2.32,0,0,1,0,.79.77.77,0,0,1,.3.39,2,2,0,0,1-.11.92,9.54,9.54,0,0,0-.28,1.76,5.44,5.44,0,0,0,.08,1.75,1.23,1.23,0,0,0,.52.75,2.93,2.93,0,0,0,.57.15.53.53,0,0,1,.44.42.48.48,0,0,1-.07.42.7.7,0,0,1-.38.27,1.47,1.47,0,0,1-1.27-.28,1.81,1.81,0,0,1-.7-1.07C67.77,13.63,67.72,13.36,67.65,13Zm.43-4.36a1.15,1.15,0,0,0-.41-.3.56.56,0,0,0-.4,0c-.61.16-1.13.87-1.55,2.13a5.94,5.94,0,0,0-.37,3.31.74.74,0,0,0,.24.43.41.41,0,0,0,.38.06q.59-.15,1-1.59a20.29,20.29,0,0,0,.53-2.27,10.66,10.66,0,0,1,.31-1.29A1.76,1.76,0,0,1,68.08,8.62Z"/><path class="cls-1" d="M73.33,5.27a20.62,20.62,0,0,0-.71,3.11,9.19,9.19,0,0,0-.08,3.45.67.67,0,0,0,.25.42.49.49,0,0,0,.42.06c.4-.11.78-.62,1.15-1.53a17.17,17.17,0,0,0,.58-1.65c.08-.31.21-.48.39-.53a.33.33,0,0,1,.29,0,.31.31,0,0,1,.15.19,5.46,5.46,0,0,1-.63,2.29c-.59,1.49-1.27,2.34-2,2.54a1.28,1.28,0,0,1-1.18-.28,1.91,1.91,0,0,1-.53-1,9.08,9.08,0,0,1-.07-3.61c.05-.36.22-1.24.5-2.63a2.55,2.55,0,0,1-.47.22,1,1,0,0,1-.48,0,.51.51,0,0,1-.37-.35.57.57,0,0,1,.21-.58,5.91,5.91,0,0,1,.85-.39,6.54,6.54,0,0,0,.78-.46,23.06,23.06,0,0,1,.82-2.42,10.71,10.71,0,0,1,.48-1.14c.13-.25.27-.4.42-.44a.48.48,0,0,1,.36.09.53.53,0,0,1,.23.27,3.31,3.31,0,0,1-.34,1.42c-.19.48-.32.87-.4,1.15a9.23,9.23,0,0,1,1.81-.88c.44-.11.71,0,.81.38a.47.47,0,0,1-.11.47,2,2,0,0,1-.6.29,12.52,12.52,0,0,0-1.69.95C73.86,4.92,73.59,5.1,73.33,5.27Z"/><path class="cls-1" d="M77.35,10l.05.22a.82.82,0,0,0,.26.42,1.16,1.16,0,0,0,1.11.18q1.5-.4,2.84-3.25c.17-.33.33-.51.49-.55a.31.31,0,0,1,.27.06.32.32,0,0,1,.12.16c.09.32-.15.95-.72,1.9a8.84,8.84,0,0,1-1.54,1.95,4.09,4.09,0,0,1-1.75,1.07,1.8,1.8,0,0,1-1.58-.24,1.9,1.9,0,0,1-.67-1.09,5.91,5.91,0,0,1,.83-4.49C77.81,5,78.57,4.24,79.34,4a1,1,0,0,1,.62,0,.87.87,0,0,1,.49.58,3.22,3.22,0,0,1-.17,1.72A6.45,6.45,0,0,1,77.35,10Zm0-1A4.86,4.86,0,0,0,78.5,8a5.41,5.41,0,0,0,.94-1.83,1,1,0,0,0,0-.56.21.21,0,0,0-.29-.18c-.21.05-.46.29-.76.71A6.32,6.32,0,0,0,77.36,9Z"/><path class="cls-1" d="M92.94,6.15a9.77,9.77,0,0,1-.47,1.39,2.1,2.1,0,0,1-1.24,1.34,1.16,1.16,0,0,1-1.18-.34,2,2,0,0,1-.48-.88,6.68,6.68,0,0,1,0-3.17,8.14,8.14,0,0,1,1.52-3.36A3,3,0,0,1,92.63.05a1.23,1.23,0,0,1,.93.09A.85.85,0,0,1,94,.68a2,2,0,0,1,0,.79.93.93,0,0,1,.3.4,2.17,2.17,0,0,1-.11.92,9.42,9.42,0,0,0-.28,1.75A5.23,5.23,0,0,0,94,6.3a1.22,1.22,0,0,0,.52.75,2.21,2.21,0,0,0,.57.14.53.53,0,0,1,.44.42.51.51,0,0,1-.07.42.62.62,0,0,1-.38.27A1.43,1.43,0,0,1,93.81,8,1.9,1.9,0,0,1,93.1,7C93.06,6.79,93,6.52,92.94,6.15Zm.43-4.36A1.14,1.14,0,0,0,93,1.48a.65.65,0,0,0-.39,0c-.61.17-1.13.88-1.55,2.14a5.94,5.94,0,0,0-.37,3.31.71.71,0,0,0,.24.42.39.39,0,0,0,.38.07c.39-.11.72-.64,1-1.59a20.72,20.72,0,0,0,.54-2.28,11.19,11.19,0,0,1,.31-1.29A1.6,1.6,0,0,1,93.37,1.79Z"/><path class="cls-1" d="M12,49.34a75.47,75.47,0,0,1,1.38-10.55q.84-4,2.43-10.14a37.79,37.79,0,0,1,1.67-5.49A2.1,2.1,0,0,1,18.7,22c.43-.11.7,0,.8.39a1.85,1.85,0,0,1-.07.87c-.09.35-.4,1.41-.94,3.17a113.16,113.16,0,0,0-3.42,14.28q-.75,4.89-1,9.45a7.26,7.26,0,0,1-.5,2.54,2.53,2.53,0,0,1-1.5,1.57c-.55.15-1-.15-1.37-.91a12,12,0,0,1-.6-1.82A69,69,0,0,1,8.15,40.59a84.75,84.75,0,0,1-.53-8.74,59.53,59.53,0,0,0-3.36,10.5,57,57,0,0,0-1.83,11.3,16.16,16.16,0,0,1-.26,2.64,1.61,1.61,0,0,1-1.11,1.26.79.79,0,0,1-.66-.13A.74.74,0,0,1,.07,57a17.65,17.65,0,0,1,.21-4.4A85.54,85.54,0,0,1,3,40.16q1.26-4.6,3.28-9.94a17,17,0,0,1,1.53-3.38,2.13,2.13,0,0,1,1.13-.91.69.69,0,0,1,.51,0,.68.68,0,0,1,.43.46,2.49,2.49,0,0,1,0,1,55.9,55.9,0,0,0-.13,7.41,56,56,0,0,0,1.62,12.46C11.48,47.72,11.69,48.41,12,49.34Z"/><path class="cls-1" d="M20.94,46l.1.36a1.42,1.42,0,0,0,.43.71,1.92,1.92,0,0,0,1.85.29q2.52-.67,4.78-5.44.41-.81.81-.93a.53.53,0,0,1,.46.12.46.46,0,0,1,.2.27c.14.52-.26,1.58-1.21,3.18a15,15,0,0,1-2.58,3.26,7,7,0,0,1-2.93,1.79,3,3,0,0,1-2.66-.4,3.22,3.22,0,0,1-1.12-1.82q-.91-3.4,1.4-7.53C21.73,37.59,23,36.29,24.29,36a1.52,1.52,0,0,1,1,.06,1.41,1.41,0,0,1,.82,1,5.27,5.27,0,0,1-.28,2.88A10.84,10.84,0,0,1,20.94,46Zm0-1.69a8.1,8.1,0,0,0,1.92-1.69,9.32,9.32,0,0,0,1.58-3.06,1.77,1.77,0,0,0,.06-1,.36.36,0,0,0-.49-.3,3,3,0,0,0-1.28,1.19A10.73,10.73,0,0,0,21,44.28Z"/><path class="cls-1" d="M37.23,39.69c-.74,1.87-1.3,3.17-1.69,3.91a17.47,17.47,0,0,1-1.31,2.17,2.82,2.82,0,0,1-1.41,1,1.21,1.21,0,0,1-1.27-.41,2.52,2.52,0,0,1-.63-1.13q-.6-2.19,1-6.75,1.44-4.12,2.58-4.43a.8.8,0,0,1,.62.11.81.81,0,0,1,.39.5A2.24,2.24,0,0,1,35,36.15a18.71,18.71,0,0,0-1.89,4.51,7.09,7.09,0,0,0-.43,2.6c.08.27.23.37.48.3q1.2-.31,3.82-6.65a24.81,24.81,0,0,1,1.06-2.38,1.6,1.6,0,0,1,.94-.77,1,1,0,0,1,.68,0,.58.58,0,0,1,.33.36,10.45,10.45,0,0,1-.42,2.3q-1.14,4.45-.78,5.81c.09.35.28.48.56.41.49-.13,1-.87,1.55-2.21a19.17,19.17,0,0,0,1.15-4.6,14.87,14.87,0,0,0,0-3c-.08-1.37.28-2.17,1.09-2.39.45-.12.75.07.89.58.47,1.76.15,4.44-1,8.05S40.67,45,39.27,45.34c-1,.27-1.72-.22-2.07-1.5A10,10,0,0,1,37.23,39.69Z"/><path class="cls-1" d="M53,27.12a3.34,3.34,0,0,1,2-.07,1.59,1.59,0,0,1,1,1.18,3.75,3.75,0,0,1-.26,2.54,6.07,6.07,0,0,1-2.08,2.37,5,5,0,0,1-1.46.77c-.56.15-.91,0-1.05-.52a.89.89,0,0,1,.28-.9c.07-.06.5-.3,1.28-.71a3.25,3.25,0,0,0,1.18-1.07,1.4,1.4,0,0,0,.27-1.16.85.85,0,0,0-.41-.56,1.15,1.15,0,0,0-.78,0,4.88,4.88,0,0,0-2.32,1.64,3.16,3.16,0,0,0-.95,3,5.26,5.26,0,0,0,1.77,2.33,5.67,5.67,0,0,1,2,2.58,3.26,3.26,0,0,1-.82,3.2,4.09,4.09,0,0,1-2,1.22,3.52,3.52,0,0,1-3.31-.59,4.07,4.07,0,0,1-1.34-2.15A4.47,4.47,0,0,1,46,37.34a1.45,1.45,0,0,1,.9-1c.33-.1.54,0,.61.26a1.19,1.19,0,0,1,0,.53,4.45,4.45,0,0,0,.09,2.16,2.32,2.32,0,0,0,1.15,1.48,2.07,2.07,0,0,0,1.6.22,1.58,1.58,0,0,0,1.08-.85,1.72,1.72,0,0,0,.06-1.23A4.28,4.28,0,0,0,49.85,37a6.24,6.24,0,0,1-2.24-3,4.56,4.56,0,0,1,1.23-4.16A8.05,8.05,0,0,1,53,27.12Z"/><path class="cls-1" d="M76.49,31.42a43.9,43.9,0,0,0-6.74,4q-1.06,3.07-2.19,7.27L67,44.74c-.09.37-.24.91-.45,1.61s-.55,1.28-1,1.4a.82.82,0,0,1-.69-.12.8.8,0,0,1-.4-.49,11.35,11.35,0,0,1,.61-3.44c.28-1.05.73-2.55,1.34-4.5.24-.75.42-1.36.55-1.83a17.21,17.21,0,0,0-1.91,1.31,1.75,1.75,0,0,1-.71.42.67.67,0,0,1-.68-.18.85.85,0,0,1-.29-.46,1,1,0,0,1,.21-1A12.71,12.71,0,0,1,66,35.64a21.51,21.51,0,0,0,2-1.47c.18-.4.62-1.57,1.32-3.5q.45-1.25,2.79-6.11a72.25,72.25,0,0,1,3.62-6.71c.75-1.25,1.39-1.94,1.93-2.09a1.18,1.18,0,0,1,1,.17,1.28,1.28,0,0,1,.52.72,6.21,6.21,0,0,1,0,2c-.18,1.74-.32,3.58-.4,5.52,0,1.71,0,3,0,3.9a3,3,0,0,0,.46-.14l.91-.27c.74-.2,1.19,0,1.34.55a1.32,1.32,0,0,1,0,.78,1,1,0,0,1-.43.58,2.63,2.63,0,0,1-.63.21,7.5,7.5,0,0,0-1.59.58,70.72,70.72,0,0,0,.42,7.35,46.39,46.39,0,0,0,.74,4.7c.25.92.1,1.46-.45,1.6a1.15,1.15,0,0,1-1.2-.39,2.56,2.56,0,0,1-.6-1.18,37.62,37.62,0,0,1-1-7.38C76.63,33.49,76.55,32.27,76.49,31.42Zm0-2.21c0-.41.05-1.48.08-3.22,0-.45.07-1.37.21-2.75s.22-2.55.29-3.41A15.41,15.41,0,0,0,75.1,22.7a55.13,55.13,0,0,0-4.24,9.69c.44-.25,1.38-.81,2.82-1.69C74.09,30.45,75,30,76.46,29.21Z"/><path class="cls-1" d="M85.05,33.7a39.6,39.6,0,0,1,3.27-5.11,18.14,18.14,0,0,1,1.53-1.79,2.19,2.19,0,0,1,.56-.46.79.79,0,0,1,.68.27.73.73,0,0,1,.29.37c.06.23-.09.61-.47,1.14-1,1.39-1.47,2.34-1.33,2.87.08.29.29.39.62.3a6.68,6.68,0,0,0,2.47-2.12,1.15,1.15,0,0,1,.51-.39.47.47,0,0,1,.35.07.52.52,0,0,1,.27.32c.11.38-.27,1.12-1.13,2.2a5.6,5.6,0,0,1-2.86,2.13,2.2,2.2,0,0,1-1.22,0,1.07,1.07,0,0,1-.7-.84,2.08,2.08,0,0,1,.11-1.2,19.59,19.59,0,0,0-2.58,4.65,27.2,27.2,0,0,0-1.28,4.6c-.14.67-.42,1.06-.86,1.18a.63.63,0,0,1-.89-.48,16.17,16.17,0,0,1,.17-3.79,27.25,27.25,0,0,1,1.69-7.47c.48-1.16,1-1.81,1.47-1.94a.78.78,0,0,1,.5,0,.61.61,0,0,1,.38.42,1.69,1.69,0,0,1-.17.91l-.67,1.56A10.14,10.14,0,0,0,85.05,33.7Z"/><path class="cls-1" d="M99,23.46a32.19,32.19,0,0,0-1.13,4.95,14.81,14.81,0,0,0-.14,5.51,1.21,1.21,0,0,0,.4.68.73.73,0,0,0,.67.08c.64-.17,1.25-1,1.84-2.43a24.53,24.53,0,0,0,.93-2.64c.13-.48.33-.76.61-.84a.55.55,0,0,1,.47.06.54.54,0,0,1,.25.3c.13.47-.21,1.7-1,3.67q-1.43,3.56-3.26,4.05a2,2,0,0,1-1.88-.46,2.94,2.94,0,0,1-.84-1.52,14.34,14.34,0,0,1-.12-5.77c.08-.57.35-2,.8-4.19a3.8,3.8,0,0,1-.75.35,1.4,1.4,0,0,1-.76,0,.81.81,0,0,1-.6-.56.89.89,0,0,1,.35-.92,8.11,8.11,0,0,1,1.35-.63,12.4,12.4,0,0,0,1.24-.73,35.49,35.49,0,0,1,1.3-3.87,19.32,19.32,0,0,1,.77-1.81c.22-.4.44-.64.67-.7a.75.75,0,0,1,.57.13.84.84,0,0,1,.37.44,5.08,5.08,0,0,1-.54,2.27c-.3.77-.51,1.38-.64,1.84a13.54,13.54,0,0,1,2.9-1.4c.7-.19,1.13,0,1.29.59a.73.73,0,0,1-.19.76,3.23,3.23,0,0,1-.94.46,18.2,18.2,0,0,0-2.7,1.51C99.79,22.91,99.37,23.18,99,23.46Z"/><path class="cls-1" d="M106.78,22.27a.68.68,0,0,1,.6.1.75.75,0,0,1,.27.38,2.66,2.66,0,0,1-.25,1.3,36.67,36.67,0,0,0-1.46,5.85,44.63,44.63,0,0,0-.45,4.65c0,.7-.27,1.1-.7,1.22a.77.77,0,0,1-.7-.14.93.93,0,0,1-.36-.48,22.15,22.15,0,0,1,.19-4.17,28,28,0,0,1,1.58-6.52,10.37,10.37,0,0,1,.67-1.64A1,1,0,0,1,106.78,22.27Zm1.72-8.1a.8.8,0,0,1,1.1.65,3,3,0,0,1-.36,2,2.29,2.29,0,0,1-1.3,1.36.79.79,0,0,1-.67-.11.91.91,0,0,1-.4-.55,3.05,3.05,0,0,1,.49-2.23A2.08,2.08,0,0,1,108.5,14.17Z"/><path class="cls-1" d="M113.76,20a1.42,1.42,0,0,1,1.95,1.18,4.81,4.81,0,0,1-.33,3.11c-.37.87-.77,1.36-1.19,1.47s-.59-.05-.7-.46a.82.82,0,0,1,0-.56c0-.06.14-.25.34-.57a4.47,4.47,0,0,0,.45-1.17,1.83,1.83,0,0,0,.06-.77c-.06-.21-.2-.28-.43-.22a2.6,2.6,0,0,0-1.06,1,11.81,11.81,0,0,0-1.75,3.89,8.21,8.21,0,0,0-.38,3.93,1.28,1.28,0,0,0,.46.68,1.2,1.2,0,0,0,1.11.23,4.83,4.83,0,0,0,2.45-2.27,19.81,19.81,0,0,0,1.67-3.21c.2-.56.42-.87.67-.94a.5.5,0,0,1,.43.09.6.6,0,0,1,.26.34c.13.47-.23,1.56-1.07,3.26-1.35,2.67-2.82,4.21-4.39,4.64a2.64,2.64,0,0,1-2.44-.43,3,3,0,0,1-1-1.62,9.32,9.32,0,0,1,.4-5.07,15.18,15.18,0,0,1,2.58-5A4,4,0,0,1,113.76,20Z"/><path class="cls-1" d="M122.2,23.59c-.12,1.1-.19,2-.21,2.65a4.94,4.94,0,0,0,.06,1.36.43.43,0,0,0,.59.36c.46-.12.94-.72,1.43-1.79a24.09,24.09,0,0,0,.92-2.69c.15-.51.37-.8.66-.88s.55,0,.63.34c.15.55-.18,1.83-1,3.85s-1.83,3.32-3,3.62a1.49,1.49,0,0,1-1.35-.29,1.88,1.88,0,0,1-.62-1,10.42,10.42,0,0,1-.15-3.15,46.82,46.82,0,0,1,.69-5.14,66.87,66.87,0,0,1,3.64-13.23q1.77-4.35,3.58-4.84a1.19,1.19,0,0,1,1,.19,1.52,1.52,0,0,1,.66.91q.73,2.68-2.38,10.23a48.62,48.62,0,0,1-3.63,7C123.42,21.68,122.89,22.53,122.2,23.59Zm.54-3.42a36.41,36.41,0,0,0,4.8-10.55c.6-2.1.82-3.44.66-4-.08-.28-.24-.39-.48-.32q-1.05.29-2.7,5.23A62.62,62.62,0,0,0,122.74,20.17Z"/><path class="cls-1" d="M129.71,24.44l.1.35a1.3,1.3,0,0,0,.4.67,1.84,1.84,0,0,0,1.77.28c1.6-.43,3.11-2.15,4.55-5.18.25-.52.51-.81.76-.88a.52.52,0,0,1,.45.1.56.56,0,0,1,.19.26c.13.5-.25,1.51-1.16,3a14.09,14.09,0,0,1-2.45,3.11,6.68,6.68,0,0,1-2.79,1.7A2.89,2.89,0,0,1,129,27.5a3,3,0,0,1-1.07-1.73c-.58-2.16-.14-4.55,1.34-7.17q1.78-3.21,3.63-3.7a1.5,1.5,0,0,1,1,.06,1.32,1.32,0,0,1,.78.92,5.06,5.06,0,0,1-.26,2.75A10.35,10.35,0,0,1,129.71,24.44Zm0-1.61a8.15,8.15,0,0,0,1.83-1.6,8.93,8.93,0,0,0,1.5-2.92,1.59,1.59,0,0,0,.06-.9.35.35,0,0,0-.47-.29,2.82,2.82,0,0,0-1.21,1.13A10.25,10.25,0,0,0,129.73,22.83Z"/></g></g></svg>