<svg xmlns="http://www.w3.org/2000/svg" xmlns:xlink="http://www.w3.org/1999/xlink" style="margin:auto;background:transparent;display:block;" width="207px" height="207px" viewBox="0 0 100 100" preserveAspectRatio="xMidYMid">
<g transform="rotate(0 50 50)">
  <rect x="46.5" y="21.5" rx="2.34" ry="2.34" width="7" height="13" fill="#0ff3e6">
    <animate attributeName="opacity" values="1;0" keyTimes="0;1" dur="1.1111111111111112s" begin="-0.9722222222222222s" repeatCount="indefinite"></animate>
  </rect>
</g><g transform="rotate(45 50 50)">
  <rect x="46.5" y="21.5" rx="2.34" ry="2.34" width="7" height="13" fill="#0ff3e6">
    <animate attributeName="opacity" values="1;0" keyTimes="0;1" dur="1.1111111111111112s" begin="-0.8333333333333333s" repeatCount="indefinite"></animate>
  </rect>
</g><g transform="rotate(90 50 50)">
  <rect x="46.5" y="21.5" rx="2.34" ry="2.34" width="7" height="13" fill="#0ff3e6">
    <animate attributeName="opacity" values="1;0" keyTimes="0;1" dur="1.1111111111111112s" begin="-0.6944444444444444s" repeatCount="indefinite"></animate>
  </rect>
</g><g transform="rotate(135 50 50)">
  <rect x="46.5" y="21.5" rx="2.34" ry="2.34" width="7" height="13" fill="#0ff3e6">
    <animate attributeName="opacity" values="1;0" keyTimes="0;1" dur="1.1111111111111112s" begin="-0.5555555555555556s" repeatCount="indefinite"></animate>
  </rect>
</g><g transform="rotate(180 50 50)">
  <rect x="46.5" y="21.5" rx="2.34" ry="2.34" width="7" height="13" fill="#0ff3e6">
    <animate attributeName="opacity" values="1;0" keyTimes="0;1" dur="1.1111111111111112s" begin="-0.41666666666666663s" repeatCount="indefinite"></animate>
  </rect>
</g><g transform="rotate(225 50 50)">
  <rect x="46.5" y="21.5" rx="2.34" ry="2.34" width="7" height="13" fill="#0ff3e6">
    <animate attributeName="opacity" values="1;0" keyTimes="0;1" dur="1.1111111111111112s" begin="-0.2777777777777778s" repeatCount="indefinite"></animate>
  </rect>
</g><g transform="rotate(270 50 50)">
  <rect x="46.5" y="21.5" rx="2.34" ry="2.34" width="7" height="13" fill="#0ff3e6">
    <animate attributeName="opacity" values="1;0" keyTimes="0;1" dur="1.1111111111111112s" begin="-0.1388888888888889s" repeatCount="indefinite"></animate>
  </rect>
</g><g transform="rotate(315 50 50)">
  <rect x="46.5" y="21.5" rx="2.34" ry="2.34" width="7" height="13" fill="#0ff3e6">
    <animate attributeName="opacity" values="1;0" keyTimes="0;1" dur="1.1111111111111112s" begin="0s" repeatCount="indefinite"></animate>
  </rect>
</g>
</svg>